<?xml version="1.0" encoding="utf-8"?>
<svg viewBox="0 0 644.3 198.86" xmlns="http://www.w3.org/2000/svg">
  <defs>
    <style>.cls-1,.cls-2{fill:#fff}.cls-2{fill-rule:evenodd}</style>
  </defs>
  <path class="cls-1" d="M 143.59 161.33 C 137.074 161.376 130.615 160.121 124.59 157.64 C 106.583 150.307 94.861 132.742 95 113.3 C 94.945 106.829 96.246 100.418 98.82 94.48 C 101.31 88.76 104.913 83.593 109.42 79.28 C 114 74.898 119.395 71.456 125.3 69.15 C 131.501 66.706 138.115 65.477 144.78 65.53 C 152.261 65.426 159.681 66.905 166.55 69.87 C 172.816 72.574 178.379 76.679 182.81 81.87 L 168.73 95.93 C 165.954 92.244 162.346 89.266 158.2 87.24 C 153.913 85.255 149.234 84.263 144.51 84.34 C 139.408 84.269 134.375 85.531 129.91 88 C 125.67 90.352 122.18 93.853 119.84 98.1 C 117.343 102.77 116.096 108.006 116.22 113.3 C 116.102 118.605 117.327 123.854 119.78 128.56 C 122.016 132.814 125.383 136.368 129.51 138.83 C 133.825 141.333 138.743 142.606 143.73 142.51 C 148.542 142.652 153.313 141.59 157.61 139.42 C 161.384 137.395 164.455 134.275 166.42 130.47 C 168.603 126.035 169.664 121.131 169.51 116.19 L 183.2 125.4 L 141.75 124.74 L 141.75 107.25 L 190.57 107.25 L 190.57 110.25 C 190.57 121.39 188.57 130.757 184.57 138.35 C 180.899 145.615 175.125 151.605 168 155.54 C 160.487 159.51 152.086 161.503 143.59 161.33 Z M 229.66 161.33 C 224.24 161.437 218.879 160.193 214.06 157.71 C 209.67 155.425 206.003 151.962 203.47 147.71 C 200.865 143.253 199.543 138.162 199.65 133 L 199.65 95.93 L 219.78 95.93 L 219.78 132.77 C 219.732 134.716 220.114 136.649 220.9 138.43 C 221.612 139.975 222.786 141.261 224.26 142.11 C 225.908 143.03 227.774 143.486 229.66 143.43 C 232.324 143.556 234.913 142.524 236.76 140.6 C 238.51 138.71 239.39 136.11 239.39 132.77 L 239.39 95.93 L 259.52 95.93 L 259.52 132.93 C 259.631 138.122 258.313 143.246 255.71 147.74 C 253.184 151.976 249.541 155.435 245.18 157.74 C 240.389 160.217 235.052 161.451 229.66 161.33 Z M 282.29 87.11 C 279.339 87.199 276.49 86.024 274.46 83.88 C 270.339 79.45 270.339 72.59 274.46 68.16 C 276.511 66.054 279.352 64.908 282.29 65 C 285.208 64.902 288.03 66.051 290.05 68.16 C 294.09 72.621 294.09 79.419 290.05 83.88 C 288.052 86.027 285.222 87.205 282.29 87.11 Z M 272.15 159.88 L 272.15 95.93 L 292.29 95.93 L 292.29 159.88 L 272.15 159.88 Z M 301.1 113 L 301.1 95.93 L 350.19 95.93 L 350.19 113 L 301.1 113 Z M 315.58 159.85 L 315.58 69.48 L 335.71 69.48 L 335.71 159.88 L 315.58 159.85 Z M 384.4 161.2 C 378.849 161.289 373.39 159.782 368.67 156.86 C 364.05 153.937 360.283 149.846 357.75 145 C 355.01 139.72 353.634 133.838 353.75 127.89 C 353.635 121.945 355.01 116.067 357.75 110.79 C 360.29 105.968 364.057 101.902 368.67 99 C 373.39 96.078 378.849 94.571 384.4 94.66 C 388.423 94.599 392.407 95.453 396.05 97.16 C 399.399 98.736 402.31 101.108 404.53 104.07 C 406.724 106.99 408.008 110.493 408.22 114.14 L 408.22 141.77 C 408.007 145.405 406.751 148.902 404.6 151.84 C 402.397 154.822 399.477 157.199 396.11 158.75 C 392.439 160.432 388.437 161.269 384.4 161.2 Z M 388.48 143 C 392.402 143.158 396.197 141.594 398.87 138.72 C 401.568 135.76 403.004 131.863 402.87 127.86 C 402.923 125.125 402.312 122.418 401.09 119.97 C 399.962 117.756 398.228 115.907 396.09 114.64 C 391.46 112.094 385.85 112.094 381.22 114.64 C 379.026 115.92 377.222 117.773 376 120 C 373.488 124.913 373.466 130.728 375.94 135.66 C 377.121 137.895 378.896 139.76 381.07 141.05 C 383.311 142.376 385.877 143.052 388.48 143 Z M 402 159.88 L 402 142.64 L 405 127.12 L 402 111.59 L 402 95.93 L 421.75 95.93 L 421.75 159.88 L 402 159.88 Z M 436 159.88 L 436 95.93 L 456.13 95.93 L 456.13 159.88 L 436 159.88 Z M 456.13 124.74 L 447.71 118.16 C 449.383 110.707 452.19 104.917 456.13 100.79 C 460.13 96.67 465.56 94.61 472.58 94.61 C 475.343 94.555 478.091 95.024 480.68 95.99 C 483.02 96.925 485.112 98.39 486.79 100.27 L 474.79 115.4 C 473.879 114.414 472.754 113.65 471.5 113.17 C 470.075 112.622 468.557 112.353 467.03 112.38 C 464.045 112.223 461.135 113.347 459.03 115.47 C 457.083 117.53 456.11 120.62 456.11 124.74 L 456.13 124.74 Z" transform="matrix(1, 0, 0, 1, -18.65999984741211, -16.75)"/>
  <path class="cls-2" d="M28.32 123c-3-.05-5.7 4.71-5.37 12 .39 8.57 6.43 17.27 6.43 25.55 0 7.09-10.81 14.78-10.71 29.35.1 16.6 8.4 25.71 31.15 25.71s28.32-10.87 28.32-25c0-13-8.38-17.35-8.38-27.07 0-10.22 5.42-14.88 6.43-20.6 1.19-6.77-2.56-9.85-5.33-8.78-2.46 1-1.34 7.37-9.92 7.55-4.12.09-7.16-3.77-7.16-13.33s-9.64-10.6-10.22-1.22c-.18 2.78-1.06 8.14-6.81 8.17-6.4.01-4.61-12.22-8.43-12.33z" transform="matrix(1, 0, 0, 1, -18.65999984741211, -16.75)"/>
  <path class="cls-2" d="M24.62 124.69h10.65l-1.85-89.64h-6.96l-1.84 89.64z"/>
  <path class="cls-2" d="M59.24 42.62A61.86 61.86 0 0160 25.35c1.67-8.41-.47-13.15-5.12-2.27L43.74 49.2c-.44 1-1.17 1.46.31 3.55a4.71 4.71 0 011 2.35h7.09c0-1.18 1.37-4.32 3.87-6.42 1.54-1.3 3.39-4.22 3.23-6.06z" transform="matrix(1, 0, 0, 1, -18.65999984741211, -16.75)"/>
  <path class="cls-1" transform="matrix(0.39330019488906187, -0.9194101134424322, 0.9194101134424322, 0.39330019488906187, -10.63991636358169, 48.479964872115076)" d="M52.94 24.84h1v3.38h-1z"/>
  <path class="cls-2" d="M51.63 27.38l-1.08-.46c-.85-.76 0-2.71 1.13-2.63l1.07.46c.47.6-.37 2.56-1.12 2.63z" transform="matrix(1, 0, 0, 1, -18.65999984741211, -16.75)"/>
  <path class="cls-1" transform="matrix(0.39346056809373975, -0.919341493328432, 0.919341493328432, 0.39346056809373975, -15.620508662714245, 49.36974343876496)" d="M51.13 29.06h1v3.38h-1z"/>
  <path class="cls-2" d="M49.82 31.61l-1.08-.47c-.85-.76 0-2.71 1.13-2.63L51 29c.41.57-.43 2.53-1.18 2.61z" transform="matrix(1, 0, 0, 1, -18.65999984741211, -16.75)"/>
  <path class="cls-1" transform="matrix(0.3936210517346676, -0.9192727928266419, 0.9192727928266419, 0.3936210517346676, -20.599999466115925, 50.270322426896854)" d="M49.33 33.28h1v3.38h-1z"/>
  <path class="cls-2" d="M48 35.83l-1.07-.46c-.85-.76 0-2.72 1.12-2.63l1.08.46c.48.59-.36 2.55-1.13 2.63z" transform="matrix(1, 0, 0, 1, -18.65999984741211, -16.75)"/>
  <path class="cls-1" transform="matrix(0.3931396872809345, -0.9194787579300834, 0.9194787579300834, 0.3931396872809345, -25.56994712587114, 51.189931665016516)" d="M47.52 37.5h1v3.38h-1z"/>
  <path class="cls-2" d="M46.21 40.05l-1.08-.46c-.85-.76 0-2.72 1.13-2.63l1.07.46c.47.58-.33 2.58-1.12 2.63z" transform="matrix(1, 0, 0, 1, -18.65999984741211, -16.75)"/>
  <path class="cls-1" transform="matrix(0.39346056809373975, -0.919341493328432, 0.919341493328432, 0.39346056809373975, -30.55019971522649, 52.07057436165357)" d="M45.72 41.73h1v3.38h-1z"/>
  <path class="cls-2" d="M44.4 44.27l-1.08-.46c-.85-.76 0-2.72 1.13-2.63l1.08.46c.47.59-.38 2.56-1.13 2.63z" transform="matrix(1, 0, 0, 1, -18.65999984741211, -16.75)"/>
  <path class="cls-1" transform="matrix(0.39346056809373975, -0.919341493328432, 0.919341493328432, 0.39346056809373975, -35.53012092057499, 52.97042639072673)" d="M43.91 45.95h1v3.38h-1z"/>
  <path class="cls-2" d="M42.6 48.49L41.52 48c-.85-.76 0-2.72 1.12-2.63l1.08.46c.47.63-.37 2.59-1.12 2.66z" transform="matrix(1, 0, 0, 1, -18.65999984741211, -16.75)"/>
  <path d="M499 159.62V65.93h26.31v93.69zm21.45 0v-22.37h43.82v22.37zm44.74 0l35.67-93.69h26.84l35.3 93.69h-27.4L609.41 80h9.47L592 159.62zm23.17-15.79V123.3h52.37v20.53z" transform="matrix(1, 0, 0, 1, -18.65999984741211, -16.75)" fill="#d88506"/>
</svg>